<svg width="300" height="300" viewBox="0 0 300 300" fill="none" xmlns="http://www.w3.org/2000/svg">
<rect width="300" height="300" fill="#E60F30"/>
<path d="M245.439 155.764C245.437 155.767 245.438 155.772 245.441 155.774C253.786 163.796 267.836 155.148 273.399 162.488C274.728 164.236 270.87 170.587 268.615 170.663C244.632 171.526 245.704 173.006 231.574 160.274L219.21 195.113C218.272 197.752 213.261 201.621 210.796 201.639C208.331 201.662 202.953 196.954 202.487 194.407L189.33 138.686L178.859 177.307C178.329 180.051 173.953 184.818 171.523 185.867C168.685 187.084 161.839 183.151 160.732 180.156L149.066 155.647C144.947 161.527 140.379 170.622 135.169 170.617L108.104 169.955L104.748 151.723C99.1013 138.758 85.9444 145.634 76.872 143.035C61.6931 138.689 58.0222 115.783 62.2991 102.358C67.147 87.1386 80.5079 76.3007 97.8136 75.5665C110.959 75.0071 122.059 80.4494 130.141 88.9799C143.904 103.5 140.355 131.708 131.568 126.091C130.158 125.188 127.501 121.103 127.664 119.209C129.028 103.343 118.178 87.022 99.9987 87.4183C89.522 87.6455 80.2399 93.2043 75.7882 101.006C70.6198 110.067 71.9134 124.692 79.5815 131.096C99.212 128.771 116.961 137.086 119.041 158.383L131.568 159.021C138.934 153.929 137.116 144.542 147.144 142.397C150.645 141.651 158.139 146.255 159.543 149.925L168.831 167.203L178.859 132.101C179.651 128.063 186.043 122.237 189.586 122.505C193.129 122.773 199.136 128.99 199.923 133.045L212.328 181.746L219.722 157.675C220.911 153.8 227.67 148.008 231.458 148.008C236.263 148.008 240.743 151.24 245.437 155.754C245.44 155.756 245.441 155.761 245.439 155.764Z" fill="white"/>
<path d="M86.1019 214.064C88.9221 235.618 102.86 248.611 122.1 247.05C157.684 244.16 148.175 203.71 152.289 197.533C153.396 195.873 159.52 195.29 160.248 197.149C168.004 216.809 159.514 250.493 129.768 257.76C108.786 262.881 82.8272 251.956 77.9909 228.439C67.1239 175.607 33.876 170.031 27.5714 124.628C21.3833 80.0821 51.3623 44.352 95.4423 41.2404C165.166 36.3226 185.642 108.395 173.697 115.649C171.622 116.908 165.44 113.307 165.277 110.446C163.29 76.0616 134.465 51.7404 99.9756 52.9757C79.838 53.6982 61.4777 61.9315 50.6689 76.4986C38.4384 92.9885 35.4551 113.347 41.7539 132.914C52.4986 166.307 82.2503 184.615 86.1077 214.058L86.1019 214.064Z" fill="white"/>
</svg>
