<svg width="247" height="156" viewBox="0 0 247 156" fill="none" xmlns="http://www.w3.org/2000/svg">
<path d="M57.8867 91.7716L244.939 92.5767C248.33 90.0055 247.578 85.2373 242.376 84.3248L65.67 83.5363C64.1896 68.3801 51.5588 62.4628 37.5886 64.1173C32.1315 59.5601 31.211 49.1519 34.8891 42.7038C38.0572 37.1514 44.6628 33.1954 52.1186 33.0337C65.0563 32.7517 72.7774 44.3666 71.8071 55.6581C71.691 57.0057 73.5819 59.9126 74.5854 60.5553C80.8386 64.5527 83.3639 44.4786 73.5694 34.145C67.818 28.0743 59.9185 24.2012 50.5636 24.5993C38.2479 25.1218 28.7395 32.8347 25.2895 43.6658C22.2458 53.2198 24.8582 69.5205 35.6604 72.6139C42.1168 74.4633 51.48 69.5702 55.4982 78.7966L57.8867 91.7716Z" fill="#E60F30"/>
<path d="M42.2289 123.162C44.2359 138.501 54.1548 147.748 67.8472 146.637C93.171 144.58 86.4036 115.793 89.3312 111.398C90.119 110.216 94.4772 109.801 94.9956 111.124C100.515 125.115 94.4731 149.087 73.3042 154.258C58.372 157.903 39.8984 150.128 36.4567 133.392C28.7231 95.7939 5.06207 91.8255 0.575345 59.5145C-3.82844 27.813 17.5063 2.38544 48.876 0.171109C98.4954 -3.3287 113.067 47.9618 104.566 53.1244C103.09 54.0201 98.6903 51.4574 98.5742 49.4214C97.1601 24.9518 76.6464 7.64345 52.1022 8.52255C37.7712 9.03674 24.705 14.896 17.0128 25.2628C8.30893 36.9979 6.18582 51.4865 10.6684 65.4111C18.3149 89.1758 39.4879 102.205 42.233 123.158L42.2289 123.162Z" fill="#E60F30"/>
</svg>
